<?xml version="1.0" encoding="utf-8"?>
<!-- Generator: Adobe Illustrator 27.0.1, SVG Export Plug-In . SVG Version: 6.00 Build 0)  -->
<svg version="1.1" id="Layer_1" xmlns="http://www.w3.org/2000/svg" xmlns:xlink="http://www.w3.org/1999/xlink" x="0px" y="0px"
	 viewBox="0 0 702.2 283.5" style="enable-background:new 0 0 702.2 283.5;" xml:space="preserve">
<style type="text/css">
	.st0{fill:#EA4B2E;}
	.st1{fill:#85CBD2;}
	.st2{fill:#FFFFFF;}
</style>
<g>
	<polygon class="st0" points="139,56.7 175,65 175,14.6 139,0 	"/>
	<g>
		<path class="st1" d="M139,283.5L263.7,225v-35.1l-16.6,4.9V157l16.6-2v-34.8l-124.7-7L139,283.5L139,283.5z M175,165.5l52.4-6.2
			v41.2L175,215.8V165.5z"/>
		<polygon class="st1" points="203.8,26.3 203.8,71.7 263.7,85.5 263.7,50.5 		"/>
	</g>
	<g>
		<polygon class="st2" points="50.5,35.8 0,56.3 0,88.7 14.3,85.4 14.3,225 30.9,232.8 30.9,81.6 50.5,77.1 		"/>
		<polygon class="st2" points="102.9,65 102.9,216.2 74.1,207.7 74.1,71.6 50.5,77.1 50.5,242 139,283.5 139,56.7 		"/>
		<polygon class="st2" points="102.9,14.6 74.1,26.3 74.1,71.6 102.9,65 		"/>
	</g>
	<g>
		<g>
			<path class="st2" d="M326.4,86v42.5h-10.2V86h-16.5v-9.6h43.2V86H326.4z"/>
			<path class="st2" d="M366.7,124.6c-2,3.4-6.2,4.9-10,4.9c-8.7,0-13.7-6.4-13.7-14.3V92.3h9.8v20.9c0,4,2.1,7.3,6.6,7.3
				c4.3,0,6.8-2.9,6.8-7.1v-21h9.8V122c0,2.8,0.2,5.3,0.4,6.5H367C366.8,127.8,366.7,126.1,366.7,124.6z M351.9,77.1
				c2.9,0,5.2,2.4,5.2,5.2c0,2.9-2.4,5.1-5.2,5.1c-2.9,0-5.1-2.3-5.1-5.1S349,77.1,351.9,77.1z M367.3,77.1c2.9,0,5.2,2.4,5.2,5.2
				c0,2.9-2.4,5.1-5.2,5.1c-2.9,0-5.1-2.3-5.1-5.1C362.2,79.5,364.4,77.1,367.3,77.1z"/>
			<path class="st2" d="M385.9,128.5V75.3h9.6v21c1.6-2.6,5.6-4.9,11-4.9c10.6,0,16.7,8.2,16.7,18.9c0,11-6.8,19.1-17.1,19.1
				c-5,0-8.8-2.2-10.7-5.3v4.4H385.9z M404.5,100.1c-4.9,0-9,3.6-9,10.2c0,6.5,4.1,10.3,9,10.3c5,0,9-3.7,9-10.3
				S409.5,100.1,404.5,100.1z"/>
			<path class="st2" d="M435.9,74.4c3.4,0,6,2.7,6,6.1c0,3.2-2.6,6-6,6c-3.3,0-6-2.7-6-6C429.9,77.1,432.6,74.4,435.9,74.4z
				 M431.1,128.5V92.3h9.8v36.2H431.1z"/>
			<path class="st2" d="M460.6,128.5h-9.8V92.3h9.5v4.5c2.2-3.7,6.5-5.4,10.4-5.4c9,0,13.1,6.4,13.1,14.3v22.8H474v-21.1
				c0-4-2-7.2-6.7-7.2c-4.3,0-6.8,3.3-6.8,7.5L460.6,128.5L460.6,128.5z"/>
			<path class="st2" d="M500.2,128.1c0.7,4,3.8,6.8,8.5,6.8c6.2,0,9.6-3.1,9.6-10.1v-2.6c-1.5,2.4-4.9,4.6-10.1,4.6
				c-9.6,0-16.8-7.4-16.8-17.6c0-9.6,6.9-17.6,16.8-17.6c5.7,0,9,2.5,10.3,4.9v-4.3h9.4v32.3c0,9.9-5.4,19-19,19
				c-9.9,0-16.5-6.2-17.6-13.1L500.2,128.1z M518.4,109.3c0-5.6-3.8-9.1-8.5-9.1c-4.9,0-8.7,3.5-8.7,9.1c0,5.7,3.6,9.2,8.7,9.2
				C514.9,118.5,518.4,114.9,518.4,109.3z"/>
			<path class="st2" d="M570.9,118.1c-1.8,6.2-7.6,11.5-16.5,11.5c-9.9,0-18.7-7.1-18.7-19.3c0-11.5,8.5-19,17.8-19
				c11.2,0,17.9,7.1,17.9,18.7c0,1.4-0.1,2.9-0.1,3h-25.9c0.2,4.8,4.3,8.2,9.1,8.2c4.6,0,7.1-2.3,8.2-5.5L570.9,118.1z M561.8,106.3
				c-0.1-3.6-2.5-7.1-8.1-7.1c-5.1,0-7.9,3.8-8.1,7.1H561.8z"/>
			<path class="st2" d="M589.1,128.5h-9.8V92.3h9.5v4.5c2.2-3.7,6.5-5.4,10.4-5.4c9,0,13.1,6.4,13.1,14.3v22.8h-9.8v-21.1
				c0-4-2-7.2-6.7-7.2c-4.3,0-6.8,3.3-6.8,7.5L589.1,128.5L589.1,128.5z"/>
			<path class="st2" d="M670.2,116.6H649l-4.3,11.9H634l20-52.1h11.8l19.9,52.1h-11L670.2,116.6z M652.4,107.3h14.4l-7.2-19.7
				L652.4,107.3z"/>
			<path class="st2" d="M691.9,128.5V76.4h10.3v52.1H691.9z"/>
		</g>
		<g>
			<path class="st2" d="M298.6,181.1c0-16.6,12.6-27.2,26.5-27.2c14.4,0,21.8,8.8,23.9,17.3l-9.6,3c-1.2-5-5.3-10.5-14.3-10.5
				c-7.8,0-16,5.6-16,17.4c0,11.1,7.8,17.2,16.2,17.2c8.9,0,13.2-5.8,14.6-10.7l9.5,2.9c-2,8-9.5,17.7-24.1,17.7
				S298.6,197.7,298.6,181.1z"/>
			<path class="st2" d="M389.2,196.7c-1.8,6.2-7.6,11.5-16.5,11.5c-9.9,0-18.7-7.1-18.7-19.3c0-11.5,8.5-19,17.8-19
				c11.2,0,17.9,7.1,17.9,18.7c0,1.4-0.1,2.9-0.1,3h-25.9c0.2,4.8,4.3,8.2,9.1,8.2c4.6,0,7.1-2.3,8.2-5.5L389.2,196.7z M380.1,184.9
				c-0.1-3.6-2.5-7.1-8.1-7.1c-5.1,0-7.9,3.8-8.1,7.1H380.1z"/>
			<path class="st2" d="M407.3,207.1h-9.8v-36.2h9.5v4.5c2.2-3.7,6.5-5.4,10.4-5.4c9,0,13.1,6.4,13.1,14.3v22.8h-9.8V186
				c0-4-2-7.2-6.7-7.2c-4.3,0-6.8,3.3-6.8,7.5L407.3,207.1L407.3,207.1z"/>
			<path class="st2" d="M452.5,170.9h7.3v8.7h-7.3v15.1c0,3.2,1.5,4.2,4.3,4.2c1.2,0,2.5-0.1,3-0.3v8.1c-0.9,0.4-2.6,0.9-5.5,0.9
				c-7.1,0-11.5-4.2-11.5-11.2v-16.8h-6.5v-8.7h1.8c3.8,0,5.6-2.5,5.6-5.7v-5.1h8.8L452.5,170.9L452.5,170.9z"/>
			<path class="st2" d="M500.3,196.7c-1.8,6.2-7.6,11.5-16.5,11.5c-9.9,0-18.7-7.1-18.7-19.3c0-11.5,8.5-19,17.8-19
				c11.2,0,17.9,7.1,17.9,18.7c0,1.4-0.1,2.9-0.1,3h-25.9c0.2,4.8,4.3,8.2,9.1,8.2c4.6,0,7.1-2.3,8.2-5.5L500.3,196.7z M491.1,184.9
				c-0.1-3.6-2.5-7.1-8.1-7.1c-5.1,0-7.9,3.8-8.1,7.1H491.1z"/>
			<path class="st2" d="M530.7,180.6c-1.1-0.2-2.1-0.3-2.9-0.3c-5,0-9.3,2.4-9.3,10.2V207h-9.8v-36.2h9.5v5.4
				c2.2-4.8,7.2-5.7,10.3-5.7c0.8,0,1.5,0.1,2.3,0.1L530.7,180.6L530.7,180.6z"/>
		</g>
	</g>
</g>
</svg>
